<?xml version="1.0" encoding="UTF-8" standalone="no"?>
<!-- Created with Inkscape (http://www.inkscape.org/) -->

<svg
   xmlns:dc="http://purl.org/dc/elements/1.1/"
   xmlns:cc="http://creativecommons.org/ns#"
   xmlns:rdf="http://www.w3.org/1999/02/22-rdf-syntax-ns#"
   xmlns:svg="http://www.w3.org/2000/svg"
   xmlns="http://www.w3.org/2000/svg"
   xmlns:sodipodi="http://sodipodi.sourceforge.net/DTD/sodipodi-0.dtd"
   xmlns:inkscape="http://www.inkscape.org/namespaces/inkscape"
   width="744.09448819"
   height="1052.3622047"
   id="svg4158"
   version="1.1"
   inkscape:version="0.48.4 r9939"
   sodipodi:docname="arch.pdf">
  <defs
     id="defs4160">
    <marker
       inkscape:stockid="Arrow2Lstart"
       orient="auto"
       refY="0.0"
       refX="0.0"
       id="Arrow2Lstart"
       style="overflow:visible">
      <path
         id="path6243"
         style="fill-rule:evenodd;stroke-width:0.62500000;stroke-linejoin:round"
         d="M 8.7185878,4.0337352 L -2.2072895,0.016013256 L 8.7185884,-4.0017078 C 6.9730900,-1.6296469 6.9831476,1.6157441 8.7185878,4.0337352 z "
         transform="scale(1.1) translate(1,0)" />
    </marker>
    <inkscape:path-effect
       effect="spiro"
       id="path-effect6217"
       is_visible="true" />
    <inkscape:perspective
       sodipodi:type="inkscape:persp3d"
       inkscape:vp_x="10 : 544.68109 : 1"
       inkscape:vp_y="0 : 1000 : 0"
       inkscape:vp_z="754.09448 : 544.68109 : 1"
       inkscape:persp3d-origin="382.04724 : 369.28739 : 1"
       id="perspective4715" />
  </defs>
  <sodipodi:namedview
     id="base"
     pagecolor="#ffffff"
     bordercolor="#666666"
     borderopacity="1.0"
     inkscape:pageopacity="0.0"
     inkscape:pageshadow="2"
     inkscape:zoom="5.6568542"
     inkscape:cx="510.32794"
     inkscape:cy="828.72768"
     inkscape:document-units="px"
     inkscape:current-layer="layer1"
     showgrid="false"
     showborder="false"
     inkscape:window-width="1366"
     inkscape:window-height="744"
     inkscape:window-x="0"
     inkscape:window-y="24"
     inkscape:window-maximized="1"
     showguides="true"
     inkscape:guide-bbox="true">
    <sodipodi:guide
       orientation="0,1"
       position="173.5,949"
       id="guide3824" />
  </sodipodi:namedview>
  <metadata
     id="metadata4163">
    <rdf:RDF>
      <cc:Work
         rdf:about="">
        <dc:format>image/svg+xml</dc:format>
        <dc:type
           rdf:resource="http://purl.org/dc/dcmitype/StillImage" />
        <dc:title></dc:title>
      </cc:Work>
    </rdf:RDF>
  </metadata>
  <g
     inkscape:label="Layer 1"
     inkscape:groupmode="layer"
     id="layer1">
    <rect
       style="fill:#e6e6e6;fill-opacity:1;stroke:none"
       id="rect4773"
       width="248.84772"
       height="146.47548"
       x="369.89224"
       y="221.50281"
       ry="1.9074119" />
    <path
       inkscape:connector-curvature="0"
       id="path4936"
       d="m 538.88901,287.63997 0,-3.78287 3.93064,1.12304 3.93063,1.12304 0,3.78287 0,3.78287 -3.93063,-1.12305 -3.93064,-1.12303 0,-3.78287 z m 6.73823,1.92521 0,-2.70205 -2.80759,-0.80217 -2.8076,-0.80217 0,2.70205 0,2.70204 2.8076,0.80217 2.80759,0.80218 0,-2.70205 z m -4.49216,-1.28347 0,-1.62123 1.68457,0.4813 1.68455,0.48131 0,1.62122 0,1.62123 -1.68455,-0.4813 -1.68457,-0.4813 0,-1.62123 z m 6.73823,4.08685 0,-1.62123 0.56153,0.16043 0.56151,0.16043 0,-0.54041 0,-0.5404 -0.56151,-0.16044 -0.56153,-0.16043 0,-2.70205 0,-2.70205 0.56153,0.16043 0.56151,0.16044 0,0.54041 0,0.54041 1.68456,0.4813 1.68456,0.48131 0,-0.54041 0,-0.54041 -0.56152,-0.16044 -0.56152,-0.16043 0,-0.54041 0,-0.54041 0.56152,0.16043 0.56152,0.16044 0,0.54041 0,0.54041 0.56152,0.16043 0.56152,0.16043 0,-2.16163 0,-2.16164 -0.56152,-0.16043 -0.56152,-0.16044 0,1.08082 0,1.08082 -1.12304,-0.32087 -1.12304,-0.32087 0,0.54042 0,0.5404 -0.56152,-0.16043 -0.56152,-0.16044 0,-0.5404 0,-0.54041 -0.56151,-0.16044 -0.56153,-0.16043 0,0.54041 0,0.5404 -1.12303,-0.32086 -1.12304,-0.32087 0,0.54041 0,0.54041 0.56152,0.16043 0.56152,0.16043 0,0.54042 0,0.54041 -0.56152,-0.16044 -0.56152,-0.16043 0,-0.54041 0,-0.54041 -0.56152,-0.16043 -0.56152,-0.16044 0,-0.54041 0,-0.54041 -0.56152,-0.16044 -0.56152,-0.16043 0,1.08082 0,1.08082 -0.56151,-0.16044 -0.56152,-0.16043 0,-1.08082 0,-1.08081 -0.56153,-0.16044 -0.56152,-0.16044 0,0.54041 0,0.54041 -0.56151,-0.16043 -0.56152,-0.16044 0,0.54041 0,0.54042 -0.56152,-0.16043 -0.56152,-0.16044 0,-0.54041 0,-0.54041 0.56152,0.16043 0.56152,0.16043 0,-0.54041 0,-0.54041 -0.56152,-0.16043 -0.56152,-0.16043 0,-0.54041 0,-0.54041 0.56152,0.16044 0.56152,0.16043 0,0.54041 0,0.5404 0.56152,0.16044 0.56151,0.16043 0,-1.08081 0,-1.08083 -1.12303,-0.32086 -1.12304,-0.32087 0,-0.54041 0,-0.54041 0.56152,0.16044 0.56152,0.16043 0,-0.54041 0,-0.54041 0.56152,0.16044 0.56151,0.16043 0,-0.54041 0,-0.54041 -1.12303,-0.32087 -1.12304,-0.32086 0,-1.08082 0,-1.08082 0.56152,0.16043 0.56152,0.16044 0,-0.54041 0,-0.54041 -0.56152,-0.16043 -0.56152,-0.16044 0,-0.54041 0,-0.5404 0.56152,0.16043 0.56152,0.16043 0,-0.54041 0,-0.54041 -0.56152,-0.16043 -0.56152,-0.16043 0,-0.54041 0,-0.54042 1.68456,0.48131 1.68456,0.4813 0,1.62123 0,1.62123 -0.56153,-0.16044 -0.56152,-0.16044 0,0.54041 0,0.54041 -0.56151,-0.16043 -0.56152,-0.16043 0,0.54041 0,0.54041 1.12303,0.32086 1.12305,0.32088 0,-0.54041 0,-0.54041 1.12303,0.32086 1.12304,0.32087 0,-0.54041 0,-0.54041 -0.56152,-0.16043 -0.56152,-0.16044 0,-0.54041 0,-0.5404 0.56152,0.16043 0.56152,0.16043 0,-0.54041 0,-0.54041 -0.56152,-0.16043 -0.56152,-0.16043 0,-0.54041 0,-0.54041 2.24608,0.64174 2.24607,0.64173 0,-1.08082 0,-1.08082 0.56153,0.16043 0.56151,0.16044 0,-0.54041 0,-0.54041 0.56152,0.16043 0.56152,0.16044 0,-0.54041 0,-0.5404 -0.56152,-0.16044 -0.56152,-0.16044 0,-0.54041 0,-0.54041 -0.56151,-0.16043 -0.56153,-0.16043 0,-0.54041 0,-0.54041 1.12304,0.32086 1.12304,0.32087 0,-0.54041 0,-0.5404 -0.56152,-0.16044 -0.56152,-0.16043 0,-0.54041 0,-0.54041 0.56152,0.16043 0.56152,0.16044 0,0.54041 0,0.54041 1.12304,0.32087 1.12304,0.32086 0,-0.54041 0,-0.54041 0.56152,0.16044 0.56152,0.16043 0,1.08082 0,1.08081 0.56151,0.16044 0.56152,0.16043 0,-0.54041 0,-0.5404 0.56152,0.16044 0.56152,0.16043 0,0.54041 0,0.54041 0.56152,0.16043 0.56152,0.16043 0,0.54041 0,0.54041 0.56152,0.16043 0.56152,0.16044 0,-0.54041 0,-0.54041 0.56152,0.16043 0.56152,0.16043 0,-0.54041 0,-0.5404 0.56152,0.16044 0.56151,0.16043 0,0.5404 0,0.54041 0.56152,0.16044 0.56152,0.16043 0,1.62123 0,1.62123 -0.56152,-0.16044 -0.56152,-0.16043 0,-0.54041 0,-0.54041 -0.56151,-0.16043 -0.56152,-0.16043 0,-0.54041 0,-0.54041 -0.56152,-0.16043 -0.56152,-0.16044 0,0.54041 0,0.54041 -0.56152,-0.16044 -0.56152,-0.16043 0,0.54041 0,0.5404 0.56152,0.16044 0.56152,0.16043 0,1.62124 0,1.62122 0.56152,0.16044 0.56152,0.16043 0,0.54041 0,0.54041 0.56152,0.16043 0.56151,0.16043 0,0.54041 0,0.54041 -0.56151,-0.16043 -0.56152,-0.16043 0,0.54041 0,0.54041 0.56152,0.16043 0.56151,0.16043 0,1.08082 0,1.08082 1.12304,0.32087 1.12305,0.32087 0,0.54041 0,0.54041 -1.68457,-0.48131 -1.68455,-0.4813 0,0.54041 0,0.54041 0.56152,0.16044 0.56151,0.16043 0,1.08081 0,1.08082 0.56152,0.16044 0.56152,0.16044 0,-1.08082 0,-1.08082 1.12305,0.32086 1.12303,0.32087 0,-0.54041 0,-0.54041 0.56152,0.16044 0.56152,0.16043 0,-0.54041 0,-0.54041 0.56151,0.16044 0.56152,0.16043 0,1.08082 0,1.08082 -0.56152,-0.16043 -0.56151,-0.16044 0,0.54041 0,0.5404 1.12303,0.32088 1.12304,0.32086 0,-1.08081 0,-1.08082 0.56152,0.16043 0.56152,0.16043 0,1.08082 0,1.08082 0.56153,0.16044 0.56152,0.16043 0,-0.54041 0,-0.5404 1.12302,0.32086 1.12305,0.32087 0,1.08081 0,1.08083 -0.56152,-0.16044 -0.56153,-0.16043 0,0.54041 0,0.54041 -0.56151,-0.16044 -0.56151,-0.16043 0,-0.54041 0,-0.54041 -0.56152,-0.16043 -0.56153,-0.16044 0,1.08082 0,1.08082 1.68456,0.4813 1.68456,0.4813 0,1.08082 0,1.08083 -0.56152,-0.16044 -0.56153,-0.16043 0,0.54041 0,0.5404 0.56153,0.16043 0.56152,0.16044 0,1.08082 0,1.08082 -1.68456,-0.4813 -1.68456,-0.48131 0,1.08082 0,1.08082 -0.56152,-0.16043 -0.56152,-0.16044 0,1.08082 0,1.08082 0.56152,0.16044 0.56152,0.16043 0,-0.54041 0,-0.54041 0.56153,0.16043 0.56152,0.16044 0,0.54041 0,0.54041 0.56151,0.16043 0.56151,0.16043 0,-1.08081 0,-1.08082 0.56153,0.16043 0.56152,0.16044 0,1.62122 0,1.62123 -1.12305,-0.32086 -1.12302,-0.32087 0,-0.54041 0,-0.54041 -0.56152,-0.16044 -0.56153,-0.16043 0,0.54041 0,0.54041 -1.68455,-0.4813 -1.68456,-0.48131 0,-1.08082 0,-1.08082 0.56151,0.16044 0.56152,0.16044 0,-1.08082 0,-1.08083 -1.68455,-0.48129 -1.68455,-0.48131 0,0.54041 0,0.54041 0.56151,0.16044 0.56152,0.16043 0,0.54041 0,0.54041 -1.68456,-0.4813 -1.68456,-0.48131 0,0.54041 0,0.54041 -1.12303,-0.32087 -1.12304,-0.32087 0,0.54041 0,0.54041 -0.56152,-0.16043 -0.56152,-0.16044 0,-1.62122 0,-1.62123 -0.56152,-0.16043 -0.56152,-0.16043 0,-0.54041 0,-0.54041 -0.56152,-0.16044 -0.56152,-0.16044 0,-0.5404 0,-0.54042 -1.12303,-0.32086 -1.12304,-0.32087 0,1.08082 0,1.08082 -0.56152,-0.16044 -0.56152,-0.16043 0,-1.08082 0,-1.08081 0.56152,0.16043 0.56152,0.16043 0,-0.54041 0,-0.54041 -0.56152,-0.16043 -0.56152,-0.16043 0,-0.54041 0,-0.54042 -1.12304,-0.32086 -1.12304,-0.32087 0,0.54041 0,0.54041 0.56152,0.16043 0.56152,0.16044 0,0.54041 0,0.54041 -0.56152,-0.16044 -0.56152,-0.16043 0,0.54041 0,0.54041 0.56152,0.16043 0.56152,0.16043 0,0.54041 0,0.54041 -0.56152,-0.16043 -0.56152,-0.16044 0,0.54041 0,0.54041 1.68456,0.48131 1.68456,0.4813 0,0.54041 0,0.54041 0.56152,0.16043 0.56152,0.16043 0,0.54041 0,0.54041 -0.56152,-0.16043 -0.56152,-0.16044 0,-0.5404 0,-0.54041 -0.56152,-0.16044 -0.56152,-0.16043 0,0.54041 0,0.54041 -0.56152,-0.16044 -0.56152,-0.16043 0,-0.54041 0,-0.54041 -0.56152,-0.16044 -0.56152,-0.16043 0,0.54041 0,0.54041 -0.56151,-0.16043 -0.56153,-0.16044 0,-1.62122 z m 12.35342,2.44872 0,-0.54041 0.56152,0.16044 0.56152,0.16043 0,-2.16163 0,-2.16164 -1.12304,-0.32088 -1.12303,-0.32086 0,0.54041 0,0.54041 0.56152,0.16044 0.56151,0.16043 0,0.54041 0,0.54041 -1.68455,-0.4813 -1.68456,-0.48131 0,-0.54041 0,-0.5404 0.56152,0.16043 0.56152,0.16043 0,-1.08082 0,-1.08082 -0.56152,-0.16043 -0.56152,-0.16043 0,-0.54041 0,-0.54041 1.12304,0.32086 1.12304,0.32087 0,0.54041 0,0.54041 1.12303,0.32087 1.12304,0.32087 0,-1.08082 0,-1.08082 -0.56152,-0.16044 -0.56152,-0.16043 0,-1.08082 0,-1.08082 -0.56151,-0.16043 -0.56152,-0.16044 0,-0.5404 0,-0.54041 -0.56152,-0.16044 -0.56152,-0.16043 0,-1.08082 0,-1.08081 -0.56152,-0.16044 -0.56152,-0.16043 0,-0.54041 0,-0.54041 0.56152,0.16043 0.56152,0.16044 0,-0.54041 0,-0.54041 -0.56152,-0.16044 -0.56152,-0.16043 0,-1.08082 0,-1.08081 0.56152,0.16043 0.56152,0.16043 0,-0.54041 0,-0.54041 -0.56152,-0.16044 -0.56152,-0.16043 0,-0.54041 0,-0.54041 -1.12304,-0.32087 -1.12304,-0.32087 0,-1.08081 0,-1.08082 -0.56152,-0.16043 -0.56151,-0.16044 0,-0.54041 0,-0.54041 1.12303,0.32087 1.12304,0.32087 0,1.08082 0,1.08082 0.56152,0.16043 0.56152,0.16044 0,-1.08082 0,-1.08083 -0.56152,-0.16043 -0.56152,-0.16043 0,-1.08082 0,-1.08082 -0.56152,-0.16043 -0.56152,-0.16044 0,0.54041 0,0.54041 -0.56152,-0.16043 -0.56151,-0.16043 0,-0.54042 0,-0.54041 -0.56152,-0.16043 -0.56152,-0.16043 0,-0.54041 0,-0.54041 -0.56152,-0.16044 -0.56152,-0.16043 0,0.54041 0,0.54041 0.56152,0.16044 0.56152,0.16043 0,0.54041 0,0.54041 -0.56152,-0.16044 -0.56152,-0.16043 0,0.54041 0,0.54041 -0.56152,-0.16044 -0.56152,-0.16043 0,0.54041 0,0.54041 -0.56152,-0.16043 -0.56152,-0.16044 0,0.54041 0,0.54041 0.56152,0.16044 0.56152,0.16043 0,-0.54041 0,-0.54041 0.56152,0.16043 0.56152,0.16044 0,1.08082 0,1.08081 0.56152,0.16044 0.56152,0.16043 0,1.08082 0,1.08082 -1.12304,-0.32087 -1.12304,-0.32086 0,-1.08082 0,-1.08082 -0.56152,-0.16044 -0.56152,-0.16044 0,0.54041 0,0.54041 -1.68455,-0.48129 -1.68456,-0.4813 0,0.54041 0,0.54041 -0.56152,-0.16044 -0.56152,-0.16044 0,0.54041 0,0.54041 0.56152,0.16043 0.56152,0.16044 0,0.54041 0,0.54041 -0.56152,-0.16043 -0.56152,-0.16044 0,0.54041 0,0.54041 -1.12304,-0.32087 -1.12303,-0.32086 0,0.5404 0,0.54041 0.56152,0.16044 0.56151,0.16043 0,0.54041 0,0.54041 -0.56151,-0.16044 -0.56152,-0.16043 0,0.54041 0,0.54041 -0.56153,-0.16044 -0.56152,-0.16044 0,0.54041 0,0.54041 0.56152,0.16044 0.56153,0.16044 0,1.08082 0,1.08082 0.56152,0.16043 0.56151,0.16043 0,-0.54041 0,-0.54041 0.56152,0.16043 0.56152,0.16044 0,0.54041 0,0.54041 0.56152,0.16043 0.56152,0.16044 0,-0.54041 0,-0.54041 0.56152,0.16043 0.56152,0.16044 0,-0.54041 0,-0.54041 1.12303,0.32087 1.12304,0.32086 0,0.54042 0,0.54041 0.56152,0.16043 0.56152,0.16043 0,-0.54041 0,-0.54041 0.56152,0.16044 0.56152,0.16043 0,-0.54041 0,-0.54041 0.56152,0.16043 0.56152,0.16044 0,-0.5404 0,-0.54042 -0.56152,-0.16043 -0.56152,-0.16043 0,0.54041 0,0.5404 -0.56152,-0.16043 -0.56152,-0.16043 0,-1.08082 0,-1.08082 0.56152,0.16043 0.56152,0.16043 0,-0.5404 0,-0.54041 0.56152,0.16043 0.56152,0.16044 0,-0.54041 0,-0.54041 0.56152,0.16044 0.56152,0.16043 0,0.54041 0,0.54041 0.56151,0.16043 0.56152,0.16043 0,0.54041 0,0.54041 -0.56152,-0.16043 -0.56151,-0.16044 0,1.08082 0,1.08082 0.56151,0.16043 0.56152,0.16044 0,0.54041 0,0.5404 0.56152,0.16044 0.56152,0.16044 0,0.54041 0,0.54041 0.56152,0.16043 0.56152,0.16043 0,-0.54041 0,-0.54041 1.12304,0.32087 1.12304,0.32086 0,1.08082 0,1.08082 -1.68456,-0.4813 -1.68456,-0.4813 0,2.16164 0,2.16164 -0.56152,-0.16044 -0.56152,-0.16044 0,-0.54041 0,-0.5404 -0.56152,-0.16044 -0.56151,-0.16043 0,0.54041 0,0.54041 0.56151,0.16043 0.56152,0.16043 0,0.54041 0,0.54041 0.56152,0.16044 0.56152,0.16044 0,0.54041 0,0.54041 1.68456,0.48129 1.68456,0.4813 0,1.08082 0,1.08083 0.56152,0.16043 0.56151,0.16043 0,-0.54041 z m -15.72253,-14.21952 0,-0.54041 0.56152,0.16044 0.56152,0.16043 0,-0.5404 0,-0.54041 -1.12304,-0.32088 -1.12304,-0.32087 0,0.54041 0,0.54041 -0.56151,-0.16043 -0.56152,-0.16043 0,-0.54041 0,-0.54041 0.56152,0.16043 0.56151,0.16043 0,-0.5404 0,-0.54041 1.12304,0.32086 1.12304,0.32088 0,-0.54041 0,-0.54041 -0.56152,-0.16044 -0.56152,-0.16044 0,-0.54041 0,-0.5404 0.56152,0.16044 0.56152,0.16043 0,-0.54041 0,-0.54041 0.56152,0.16044 0.56152,0.16043 0,-0.54041 0,-0.54041 -0.56152,-0.16044 -0.56152,-0.16043 0,-0.54041 0,-0.5404 0.56152,0.16043 0.56152,0.16043 0,0.54041 0,0.54041 0.56152,0.16043 0.56151,0.16043 0,0.54041 0,0.54041 0.56153,0.16043 0.56151,0.16044 0,0.54041 0,0.54041 0.56152,0.16044 0.56152,0.16043 0,0.54041 0,0.54041 -1.12304,-0.32087 -1.12304,-0.32087 0,0.54041 0,0.54041 0.56153,0.16043 0.56151,0.16044 0,0.54041 0,0.5404 0.56152,0.16044 0.56152,0.16044 0,0.54041 0,0.5404 -0.56152,-0.16043 -0.56152,-0.16044 0,-0.54041 0,-0.54041 -0.56151,-0.16043 -0.56153,-0.16044 0,-0.5404 0,-0.54041 -1.12303,-0.32087 -1.12304,-0.32086 0,0.54041 0,0.54041 0.56152,0.16043 0.56152,0.16043 0,0.54041 0,0.54041 -0.56152,-0.16043 -0.56152,-0.16044 0,0.54041 0,0.54041 -0.56152,-0.16043 -0.56152,-0.16044 0,-0.54041 z m 3.36911,-3.90108 0,-1.08082 -0.56151,-0.16043 -0.56152,-0.16043 0,0.54041 0,0.54041 -0.56152,-0.16044 -0.56152,-0.16043 0,0.54041 0,0.54041 1.12304,0.32086 1.12303,0.32087 0,-1.08082 z m 6.73823,4.62726 0,-0.54041 0.56152,0.16043 0.56152,0.16044 0,-0.54041 0,-0.54041 0.56152,0.16043 0.56152,0.16044 0,0.54041 0,0.54041 -0.56152,-0.16044 -0.56152,-0.16043 0,0.54041 0,0.5404 -0.56152,-0.16043 -0.56152,-0.16043 0,-0.54041 z m 0,-3.24246 0,-0.54041 -0.56152,-0.16043 -0.56151,-0.16043 0,-2.16164 0,-2.16164 -0.56152,-0.16043 -0.56152,-0.16044 0,-1.08082 0,-1.08082 0.56152,0.16044 0.56152,0.16043 0,1.08082 0,1.08082 0.56151,0.16043 0.56152,0.16043 0,0.54042 0,0.54041 0.56152,0.16043 0.56152,0.16043 0,2.16164 0,2.16164 -0.56152,-0.16043 -0.56152,-0.16044 0,-0.54041 z m -3.36911,-2.04342 0,-0.54041 0.56152,0.16043 0.56152,0.16043 0,0.54042 0,0.54041 -0.56152,-0.16044 -0.56152,-0.16043 0,-0.54041 z m -2.24608,-1.72256 0,-0.5404 0.56152,0.16043 0.56152,0.16044 0,0.54041 0,0.54041 -0.56152,-0.16044 -0.56152,-0.16044 0,-0.54041 z m 16.84557,17.78285 0,-1.62123 -1.68455,-0.4813 -1.68455,-0.4813 0,1.62122 0,1.62123 1.68455,0.48131 1.68455,0.4813 0,-1.62123 z m -2.24607,-0.64174 0,-0.54041 0.56152,0.16044 0.56152,0.16043 0,0.54041 0,0.54041 -0.56152,-0.16043 -0.56152,-0.16044 0,-0.54041 z m 4.49215,2.3643 0,-0.54041 0.56153,0.16043 0.56152,0.16043 0,-1.08082 0,-1.08081 0.56151,0.16043 0.56151,0.16044 0,-0.54041 0,-0.54042 -1.68454,-0.4813 -1.68457,-0.4813 0,-1.62123 0,-1.62123 0.56152,0.16044 0.56152,0.16043 0,-0.54041 0,-0.54041 -0.56152,-0.16043 -0.56152,-0.16044 0,0.54041 0,0.54041 -0.56151,-0.16043 -0.56153,-0.16043 0,0.54041 0,0.5404 -0.56152,-0.16043 -0.56151,-0.16043 0,1.08081 0,1.08082 1.12303,0.32087 1.12304,0.32087 0,0.54041 0,0.54041 0.56152,0.16044 0.56152,0.16043 0,0.54041 0,0.5404 -0.56152,-0.16043 -0.56152,-0.16044 0,1.08083 0,1.08082 0.56152,0.16043 0.56152,0.16043 0,-0.5404 z m -5.61518,-8.08926 0,-0.54041 -0.56153,-0.16043 -0.56152,-0.16043 0,0.5404 0,0.54041 0.56152,0.16044 0.56153,0.16043 0,-0.54041 z m 2.24607,-0.43909 0,-0.54041 -0.56152,-0.16043 -0.56152,-0.16043 0,0.54041 0,0.54041 0.56152,0.16043 0.56152,0.16043 0,-0.54041 z m -11.23038,7.59951 0,-0.54041 0.56151,0.16044 0.56152,0.16043 0,0.54041 0,0.54041 -0.56152,-0.16043 -0.56151,-0.16044 0,-0.54041 z m 15.72254,-9.55848 0,-0.54041 -0.56152,-0.16043 -0.56153,-0.16044 0,-0.54041 0,-0.54041 1.12305,0.32087 1.12302,0.32086 0,-0.5404 0,-0.54041 -0.56151,-0.16044 -0.56151,-0.16043 0,-1.08082 0,-1.08081 -0.56152,-0.16044 -0.56153,-0.16044 0,-0.54041 0,-0.54041 0.56153,0.16044 0.56152,0.16044 0,0.54041 0,0.54041 0.56151,0.16043 0.56151,0.16043 0,0.54041 0,0.54041 0.56153,0.16043 0.56152,0.16044 0,1.62122 0,1.62123 -0.56152,-0.16043 -0.56153,-0.16043 0,0.5404 0,0.54041 -0.56151,-0.16043 -0.56151,-0.16043 0,-0.54041 z m -7.86128,-4.94813 0,-1.08081 1.12305,0.32086 1.12303,0.32087 0,-0.54041 0,-0.54041 -1.12303,-0.32087 -1.12305,-0.32086 0,-0.54041 0,-0.54041 1.68456,0.4813 1.68456,0.4813 0,0.5404 0,0.54041 0.56151,0.16044 0.56152,0.16044 0,1.08082 0,1.08082 -0.56152,-0.16044 -0.56151,-0.16044 0,0.54041 0,0.54041 -0.56152,-0.16043 -0.56152,-0.16044 0,-0.54041 0,-0.5404 -0.56152,-0.16044 -0.56151,-0.16043 0,0.54041 0,0.54041 -0.56153,-0.16043 -0.56152,-0.16044 0,-1.08082 z m 5.61519,1.06393 0,-0.54041 0.56152,0.16044 0.56152,0.16043 0,0.54041 0,0.54041 -0.56152,-0.16043 -0.56152,-0.16044 0,-0.54041 z m -28.07595,-15.58743 0,-3.78287 3.93064,1.12304 3.93063,1.12304 0,3.78287 0,3.78287 -3.93063,-1.12304 -3.93064,-1.12304 0,-3.78287 z m 6.73823,1.92521 0,-2.70204 -2.80759,-0.80218 -2.8076,-0.80216 0,2.70204 0,2.70205 2.8076,0.80216 2.80759,0.80218 0,-2.70205 z m -4.49216,-1.28347 0,-1.62123 1.68457,0.4813 1.68455,0.4813 0,1.62123 0,1.62123 -1.68455,-0.48131 -1.68457,-0.4813 0,-1.62122 z m 17.96862,8.37634 0,-0.54041 0.56152,0.16044 0.56151,0.16043 0,0.54041 0,0.54041 -0.56151,-0.16044 -0.56152,-0.16043 0,-0.54041 z m 2.24607,0.64174 0,-0.54041 0.56152,0.16044 0.56153,0.16043 0,0.54041 0,0.54041 -0.56153,-0.16043 -0.56152,-0.16044 0,-0.54041 z m 2.24608,-2.60072 0,-3.78287 3.93063,1.12304 3.93064,1.12304 0,3.78286 0,3.78287 -3.93064,-1.12304 -3.93063,-1.12304 0,-3.78286 z m 6.73822,1.92521 0,-2.70205 -2.80759,-0.80217 -2.80759,-0.80217 0,2.70204 0,2.70205 2.80759,0.80217 2.80759,0.80218 0,-2.70205 z m -4.49215,-1.28347 0,-1.62124 1.68456,0.48131 1.68457,0.4813 0,1.62123 0,1.62123 -1.68457,-0.48131 -1.68456,-0.4813 0,-1.62122 z m -8.9843,-5.80941 0,-0.54041 0.56152,0.16044 0.56152,0.16043 0,0.54041 0,0.54041 -0.56152,-0.16044 -0.56152,-0.16043 0,-0.54041 z m 4.49215,1.28348 0,-0.54041 0.56152,0.16043 0.56153,0.16043 0,0.54042 0,0.54041 -0.56153,-0.16043 -0.56152,-0.16044 0,-0.54041 z"
       style="fill:#000000;fill-opacity:1" />
    <path
       style="fill:#c8c8c8;fill-opacity:0.64383563;stroke:#000000;stroke-width:0.55074149;stroke-opacity:0.58447487"
       d="m 473.57796,290.63825 63.29332,-32.78371 36.69497,10.10967 -0.37494,35.02682 -91.97326,-7.78747 -6.46774,-0.54763 z"
       id="path4918"
       inkscape:connector-curvature="0"
       sodipodi:nodetypes="ccccccc" />
    <path
       sodipodi:type="arc"
       style="fill:#333333;fill-opacity:1;stroke:none"
       id="path6853"
       sodipodi:cx="40"
       sodipodi:cy="76.5"
       sodipodi:rx="2"
       sodipodi:ry="2"
       d="m 42,76.5 a 2,2 0 1 1 -4,0 2,2 0 1 1 4,0 z"
       transform="matrix(8.0427641,0,0,8.0427641,105.78416,-360.0269)" />
    <path
       style="fill:#333333;stroke:#333333;stroke-width:23.07694626;stroke-linecap:round;stroke-linejoin:round;stroke-miterlimit:4;stroke-opacity:1;stroke-dasharray:none"
       d="m 426.71584,284.18689 0,65.34746"
       id="path6857"
       inkscape:connector-curvature="0" />
    <path
       style="fill:#333333;stroke:#333333;stroke-width:13.27893925;stroke-linecap:round;stroke-linejoin:round;stroke-miterlimit:4;stroke-opacity:1;stroke-dasharray:none"
       d="m 422.5882,281.02343 -12.76613,11.79039 -9.00005,23.32461"
       id="path6861"
       inkscape:connector-curvature="0"
       sodipodi:nodetypes="ccc" />
    <path
       sodipodi:nodetypes="ccc"
       inkscape:connector-curvature="0"
       id="path4703"
       d="m 429.12418,279.07988 17.73444,19.09391 13.14559,5.2837"
       style="fill:#333333;stroke:#333333;stroke-width:13.27893925;stroke-linecap:round;stroke-linejoin:round;stroke-miterlimit:4;stroke-opacity:1;stroke-dasharray:none" />
    <rect
       style="fill:#bdbdbd;fill-opacity:1;stroke:#3d3d3d;stroke-width:2.20296597;stroke-linecap:round;stroke-linejoin:round;stroke-miterlimit:4;stroke-opacity:1;stroke-dasharray:none"
       id="rect4705"
       width="9.0118332"
       height="16.418074"
       x="467.33109"
       y="289.76114"
       ry="1.7749269" />
    <path
       sodipodi:type="arc"
       style="fill:#bdbdbd;fill-opacity:1;stroke:none"
       id="path4709"
       sodipodi:cx="466.375"
       sodipodi:cy="338.73718"
       sodipodi:rx="1.875"
       sodipodi:ry="1.875"
       d="m 468.25,338.73718 a 1.875,1.875 0 1 1 -3.75,0 1.875,1.875 0 1 1 3.75,0 z"
       transform="matrix(0.46025593,0,0,0.46025593,257.18513,150.18781)" />
    <path
       style="fill:#c8c8c8;fill-opacity:1;stroke:none"
       d="m 477.4695,134.45123 c -7.95517,0.20484 -15.21538,5.29048 -17.91101,13.1125 -1.11504,-0.56625 -2.3589,-0.89812 -3.6951,-0.89812 -4.53501,0 -8.21135,3.67635 -8.21135,8.21135 -6.48721,0.80238 -11.52156,6.30554 -11.52156,13.00986 0,7.256 5.88216,13.13816 13.13816,13.13816 0.96208,-0.14826 1.82195,0.15421 2.66869,0.28226 l 39.72241,0 c 5.65241,0.41882 10.99566,-3.161 12.59929,-8.8272 1.71496,-6.05959 -1.46257,-12.34193 -7.18494,-14.62646 2.052,-9.92126 -3.87809,-19.88154 -13.77967,-22.68385 -1.94269,-0.54982 -3.90746,-0.76787 -5.82492,-0.7185 z"
       id="path5041"
       inkscape:connector-curvature="0"
       sodipodi:nodetypes="scscscccscss" />
    <path
       style="fill:none;stroke:#8b8b8b;stroke-width:0.7;stroke-linecap:butt;stroke-linejoin:miter;stroke-miterlimit:4;stroke-opacity:1;stroke-dasharray:1.4,1.4;marker-start:url(#Arrow2Lstart);stroke-dashoffset:0"
       d="m 482.0293,268.07294 c 0,0 0.87492,-2.13763 3.37508,-7.8421 5.59199,-12.75896 13.3105,-39.35891 -5.01659,-71.41334"
       id="path6219"
       inkscape:connector-curvature="0"
       sodipodi:nodetypes="csc" />
    <path
       sodipodi:nodetypes="csc"
       inkscape:connector-curvature="0"
       id="path2997"
       d="m 459.84665,190.03961 c 0,0 -0.87492,2.13763 -3.37508,7.8421 -5.59199,12.75896 -13.3105,39.35891 5.01659,71.41334"
       style="fill:none;stroke:#8b8b8b;stroke-width:0.69999999;stroke-linecap:butt;stroke-linejoin:miter;stroke-miterlimit:4;stroke-opacity:1;stroke-dasharray:1.39999998,0.69999999;marker-start:url(#Arrow2Lstart);stroke-dashoffset:0" />
    <flowRoot
       xml:space="preserve"
       id="flowRoot3792"
       style="font-size:40px;font-style:normal;font-weight:normal;line-height:125%;letter-spacing:0px;word-spacing:0px;fill:#000000;fill-opacity:1;stroke:none;font-family:Sans"><flowRegion
         id="flowRegion3794"><rect
           id="rect3796"
           width="29.5"
           height="40"
           x="406.5"
           y="181.36218" /></flowRegion><flowPara
         id="flowPara3798">URLU«urkandasdf</flowPara></flowRoot>    <flowRoot
       xml:space="preserve"
       id="flowRoot3800"
       style="font-size:40px;font-style:normal;font-weight:normal;line-height:125%;letter-spacing:0px;word-spacing:0px;fill:#000000;fill-opacity:1;stroke:none;font-family:Sans"><flowRegion
         id="flowRegion3802"><rect
           id="rect3804"
           width="198"
           height="107"
           x="353"
           y="165.86218" /></flowRegion><flowPara
         id="flowPara3806">dgssdfgdsfgadfasdfasdf</flowPara></flowRoot>    <flowRoot
       xml:space="preserve"
       id="flowRoot3808"
       style="font-size:40px;font-style:normal;font-weight:normal;line-height:125%;letter-spacing:0px;word-spacing:0px;fill:#000000;fill-opacity:1;stroke:none;font-family:Sans"><flowRegion
         id="flowRegion3810"><rect
           id="rect3812"
           width="195"
           height="188"
           x="252.5"
           y="138.86218" /></flowRegion><flowPara
         id="flowPara3814">dsdfgsdfgasdfasdf</flowPara></flowRoot>    <flowRoot
       xml:space="preserve"
       id="flowRoot3011"
       style="font-size:40px;font-style:normal;font-weight:normal;line-height:125%;letter-spacing:0px;word-spacing:0px;fill:#333333;fill-opacity:1;stroke:none;font-family:Sans"
       transform="matrix(0.48559946,0,0,0.48559946,263.75787,148.98)"><flowRegion
         id="flowRegion3013"><rect
           id="rect3015"
           width="95"
           height="65.75"
           x="523"
           y="306.11218"
           style="fill:#333333" /></flowRegion><flowPara
         id="flowPara3017">1</flowPara></flowRoot>    <flowRoot
       transform="matrix(0.48559946,0,0,0.48559946,180.78299,45.353476)"
       style="font-size:40px;font-style:normal;font-weight:normal;line-height:125%;letter-spacing:0px;word-spacing:0px;fill:#333333;fill-opacity:1;stroke:none;font-family:Sans"
       id="flowRoot3019"
       xml:space="preserve"><flowRegion
         id="flowRegion3021"><rect
           style="fill:#333333"
           y="306.11218"
           x="523"
           height="65.75"
           width="95"
           id="rect3023" /></flowRegion><flowPara
         id="flowPara3025">2</flowPara></flowRoot>    <flowRoot
       xml:space="preserve"
       id="flowRoot3027"
       style="font-size:40px;font-style:normal;font-weight:normal;line-height:125%;letter-spacing:0px;word-spacing:0px;fill:#333333;fill-opacity:1;stroke:none;font-family:Sans"
       transform="matrix(0.48559946,0,0,0.48559946,245.79861,72.86998)"><flowRegion
         id="flowRegion3029"><rect
           id="rect3031"
           width="95"
           height="65.75"
           x="523"
           y="306.11218"
           style="fill:#333333" /></flowRegion><flowPara
         id="flowPara3033">3</flowPara></flowRoot>  </g>
</svg>
